<svg id="intro_logo" xmlns="http://www.w3.org/2000/svg" width="175.474" height="35.361" viewBox="0 0 175.474 35.361">
  <g id="icon" transform="translate(0)">
    <path id="Path_1" data-name="Path 1" d="M102.909-603.053a11.971,11.971,0,0,1-2.29-7.059v-6.738a1.643,1.643,0,0,0-1.626-1.651,1.6,1.6,0,0,0-1.1.468,1.589,1.589,0,0,0-.468,1.128v6.792a15.168,15.168,0,0,0,4.331,10.633.355.355,0,0,0,.5,0,.354.354,0,0,0,.1-.185c.184-.935.513-2.609.612-3.116A.345.345,0,0,0,102.909-603.053Z" transform="translate(-97.427 624.584)" fill="#003152"/>
    <path id="Path_2" data-name="Path 2" d="M164.509-616.851v6.737a15.222,15.222,0,0,1-14.046,15.176v2.522H153a1.6,1.6,0,0,1,1.6,1.6,1.588,1.588,0,0,1-.468,1.128,1.588,1.588,0,0,1-1.128.468h-7.834a1.6,1.6,0,0,1-1.6-1.6h0a1.589,1.589,0,0,1,.468-1.128,1.589,1.589,0,0,1,1.128-.468h2.1v-2.561a15.069,15.069,0,0,1-5.632-1.738.356.356,0,0,1-.138-.484.356.356,0,0,1,.168-.153l3.081-1.357a.354.354,0,0,1,.255-.011,12.018,12.018,0,0,0,3.86.633h.424a12.027,12.027,0,0,0,12.027-12.027v-6.792a1.589,1.589,0,0,1,.468-1.128,1.6,1.6,0,0,1,1.1-.468A1.643,1.643,0,0,1,164.509-616.851Z" transform="translate(-133.647 624.584)" fill="#003152"/>
    <path id="Path_3" data-name="Path 3" d="M149.108-573.192v.106a9.1,9.1,0,0,1-9.1,9.1h-.819a9.188,9.188,0,0,1-1.3-.092l-6.834,3.01a.4.4,0,0,1-.525-.2.4.4,0,0,1-.026-.238l1.245-6.338a9.342,9.342,0,0,1-1.657-5.33v-.011h3.583a.523.523,0,0,1,.43.219,5.985,5.985,0,0,0,4.911,2.559h.74a5.984,5.984,0,0,0,5.057-2.778Z" transform="translate(-124.302 587.311)" fill="#0095d7"/>
    <path id="Path_4" data-name="Path 4" d="M149.108-643.7v2.116H130.1V-643.7c0-.268.011-.532.034-.793h15.532a5.99,5.99,0,0,0-5.9-4.968h-.74A5.984,5.984,0,0,0,134.5-647.4h-3.617a9.1,9.1,0,0,1,8.31-5.394h.819a9.1,9.1,0,0,1,9.062,8.3C149.1-644.229,149.108-643.964,149.108-643.7Z" transform="translate(-124.302 652.792)" fill="#0095d7"/>
  </g>
  <g id="text" transform="translate(-97.427 652.792)">
    <path id="Path_5" data-name="Path 5" d="M374.762-588.863H359.925a6.565,6.565,0,0,0,6.9,6.609,6.22,6.22,0,0,0,5.961-3.628l1.393.227a7.569,7.569,0,0,1-7.386,4.827,8.22,8.22,0,0,1-8.423-8.617,8.175,8.175,0,0,1,8.2-8.423c5.021,0,8.2,4.082,8.2,8.65Zm-14.838-1.2h13.25a6.551,6.551,0,0,0-6.609-6.382A6.537,6.537,0,0,0,359.925-590.062Z" transform="translate(-214.659 -45.181)" fill="#003152"/>
    <path id="Path_6" data-name="Path 6" d="M466.224-617.636a5.132,5.132,0,0,0,5.443,4.665c3.207,0,5.216-1.685,5.216-4.147,0-2.981-2.624-4.471-5.54-5.831-3.434-1.685-6.188-3.013-6.188-6.771,0-3.175,2.818-5.41,6.285-5.41a6.017,6.017,0,0,1,6.091,5.572h-1.555a4.5,4.5,0,0,0-4.536-4.082c-2.592,0-4.73,1.62-4.73,3.952,0,3.045,2.365,4.017,5.054,5.281,3.725,1.749,6.674,3.628,6.674,7.321,0,3.4-2.786,5.6-6.771,5.6-3.564,0-6.739-2.333-7-6.155Z" transform="translate(-302.104 -14.529)" fill="#003152"/>
    <path id="Path_7" data-name="Path 7" d="M470.786-612.126a6.863,6.863,0,0,1-7.175-6.321l-.013-.189h1.907l.015.161a4.967,4.967,0,0,0,5.266,4.5c3.061,0,5.038-1.558,5.038-3.969,0-2.894-2.572-4.334-5.437-5.671l-.065-.032c-3.478-1.706-6.226-3.054-6.226-6.9,0-3.185,2.778-5.588,6.462-5.588a6.168,6.168,0,0,1,6.267,5.735l.016.192h-1.906l-.018-.157a4.3,4.3,0,0,0-4.359-3.925c-2.6,0-4.552,1.623-4.552,3.775,0,2.8,2.036,3.756,4.613,4.961l.339.159c3.428,1.61,6.776,3.514,6.776,7.482C477.735-614.449,474.942-612.126,470.786-612.126Zm-6.805-6.155a6.549,6.549,0,0,0,6.805,5.8c3.944,0,6.593-2.181,6.593-5.427,0-3.393-2.515-5.256-6.572-7.161l-.338-.158c-2.585-1.209-4.818-2.253-4.818-5.283,0-2.354,2.109-4.13,4.907-4.13a4.638,4.638,0,0,1,4.691,4.082h1.2a5.815,5.815,0,0,0-5.894-5.218c-3.482,0-6.108,2.25-6.108,5.233,0,3.625,2.66,4.93,6.027,6.582l.061.03c2.852,1.331,5.639,2.891,5.639,5.991,0,2.627-2.117,4.324-5.393,4.324a5.313,5.313,0,0,1-5.6-4.665Z" transform="translate(-301.224 -13.707)" fill="#003152"/>
    <path id="Path_8" data-name="Path 8" d="M562.752-597.545h1.458l.1,4.406a7.939,7.939,0,0,1,7.321-4.73,8.5,8.5,0,0,1,8.488,8.488,8.51,8.51,0,0,1-8.488,8.553,7.915,7.915,0,0,1-7.321-4.762V-573.7h-1.555Zm8.714,15.226a7.058,7.058,0,0,0,7.063-7.062,7.045,7.045,0,0,0-7.062-7,7.017,7.017,0,0,0-7.03,7A7.03,7.03,0,0,0,571.466-582.319Z" transform="translate(-382.79 -45.181)" fill="#003152"/>
    <path id="Path_9" data-name="Path 9" d="M563.016-574.992h-2.264v-24.553h2.159l.075,3.414a8.344,8.344,0,0,1,7-3.738,8.853,8.853,0,0,1,8.843,8.842,8.885,8.885,0,0,1-8.843,8.907,8.324,8.324,0,0,1-6.967-3.714Zm-1.555-.71h.846v-13.257l.68,1.582a7.581,7.581,0,0,0,7,4.548,8.175,8.175,0,0,0,8.133-8.2,8.142,8.142,0,0,0-8.133-8.133,7.594,7.594,0,0,0-7,4.517l-.644,1.48-.125-5.673h-.756Zm8.36-7.908a7.41,7.41,0,0,1-7.385-7.417,7.377,7.377,0,0,1,7.385-7.352,7.393,7.393,0,0,1,7.417,7.352A7.426,7.426,0,0,1,569.821-583.609Zm0-14.06a6.667,6.667,0,0,0-6.675,6.643,6.7,6.7,0,0,0,6.675,6.708,6.715,6.715,0,0,0,6.708-6.708A6.683,6.683,0,0,0,569.821-597.669Z" transform="translate(-381.145 -43.536)" fill="#003152"/>
    <path id="Path_10" data-name="Path 10" d="M693.116-588.863H678.278a6.565,6.565,0,0,0,6.9,6.609,6.221,6.221,0,0,0,5.961-3.628l1.393.227a7.569,7.569,0,0,1-7.386,4.827,8.22,8.22,0,0,1-8.423-8.617,8.175,8.175,0,0,1,8.2-8.423c5.021,0,8.2,4.082,8.2,8.65Zm-14.838-1.2h13.25a6.551,6.551,0,0,0-6.609-6.382A6.536,6.536,0,0,0,678.278-590.062Z" transform="translate(-476.546 -45.181)" fill="#003152"/>
    <path id="Path_11" data-name="Path 11" d="M682.679-582.764a8.757,8.757,0,0,1-8.955-9.149,9.1,9.1,0,0,1,2.446-6.3,8.55,8.55,0,0,1,6.282-2.653c4.976,0,8.728,3.947,8.728,9.182v.889h-14.8a6,6,0,0,0,6.332,5.545,5.71,5.71,0,0,0,5.471-3.3l.163-.384,2.419.394-.194.591A8.146,8.146,0,0,1,682.679-582.764Zm-.227-17.04a7.609,7.609,0,0,0-7.664,7.891,7.728,7.728,0,0,0,7.891,8.085,7.207,7.207,0,0,0,6.647-3.876l-.343-.056a6.8,6.8,0,0,1-6.271,3.571,7.121,7.121,0,0,1-7.432-7.124l-.018-.549h14.853C690.036-595.746,687.356-599.8,682.452-599.8ZM689.625-592H675.259l.02-.552a7.06,7.06,0,0,1,7.173-6.895,7.075,7.075,0,0,1,7.14,6.884Zm-13.239-1.064h12.087a5.986,5.986,0,0,0-6.021-5.318A6,6,0,0,0,676.386-593.062Z" transform="translate(-474.079 -42.713)" fill="#003152"/>
    <path id="Path_12" data-name="Path 12" d="M803.433-588.863H788.595a6.565,6.565,0,0,0,6.9,6.609,6.221,6.221,0,0,0,5.961-3.628l1.393.227a7.569,7.569,0,0,1-7.386,4.827,8.22,8.22,0,0,1-8.423-8.617,8.175,8.175,0,0,1,8.2-8.423c5.021,0,8.2,4.082,8.2,8.65Zm-14.838-1.2h13.25a6.551,6.551,0,0,0-6.609-6.382A6.537,6.537,0,0,0,788.595-590.062Z" transform="translate(-567.296 -45.181)" fill="#003152"/>
    <path id="Path_13" data-name="Path 13" d="M792.172-583.41a8.928,8.928,0,0,1-9.132-9.327,9.277,9.277,0,0,1,2.495-6.424,8.726,8.726,0,0,1,6.411-2.708c5.077,0,8.906,4.023,8.906,9.359v1.066H786.073a5.827,5.827,0,0,0,6.132,5.19,5.536,5.536,0,0,0,5.308-3.2l.218-.512,2.761.449-.259.788A8.325,8.325,0,0,1,792.172-583.41Zm-.227-17.04a7.436,7.436,0,0,0-7.487,7.714c0,4.656,3.172,7.908,7.714,7.908a8.384,8.384,0,0,0,1.048-.065,8.71,8.71,0,0,1-1.016.058,7.292,7.292,0,0,1-7.61-7.3l-.017-.512h-.01l.005-.148,0-.072h0l.019-.515a7.234,7.234,0,0,1,7.35-7.066,7.248,7.248,0,0,1,7.317,7.051l.031.53h.132C799.27-596.605,796.66-600.45,791.946-600.45Zm-5.862,6.389h11.675a5.8,5.8,0,0,0-5.813-4.963A5.827,5.827,0,0,0,786.083-594.062Z" transform="translate(-564.005 -41.891)" fill="#003152"/>
    <path id="Path_14" data-name="Path 14" d="M906.071-596.379a7.094,7.094,0,0,0-7.095,7,7.106,7.106,0,0,0,7.095,7.062,7,7,0,0,0,5.216-2.365v1.62a7.282,7.282,0,0,1-5.378,2.235,8.544,8.544,0,0,1-8.553-8.553,8.531,8.531,0,0,1,8.553-8.488,7.282,7.282,0,0,1,5.378,2.235v1.62A7,7,0,0,0,906.071-596.379Z" transform="translate(-658.045 -45.181)" fill="#003152"/>
    <path id="Path_15" data-name="Path 15" d="M901.8-584.055a9.45,9.45,0,0,1-9.439-9.44,9.418,9.418,0,0,1,9.439-9.375,8.115,8.115,0,0,1,6.019,2.509l.246.257v4.189l-1.529-1.6a6.109,6.109,0,0,0-4.574-2.09,6.242,6.242,0,0,0-6.208,6.111,6.2,6.2,0,0,0,6.208,6.176,6.108,6.108,0,0,0,4.574-2.091l1.529-1.6v4.189l-.246.257A8.116,8.116,0,0,1,901.8-584.055Z" transform="translate(-653.932 -41.068)" fill="#003152"/>
    <path id="Path_16" data-name="Path 16" d="M1013.571-625.8v9.492h-1.555v-9.006c0-4.374-2.171-6.22-5.021-6.22-4.762,0-6.252,4.276-6.35,6.253v8.974H999.09v-24.3h1.555v11.436a7.717,7.717,0,0,1,6.771-3.855C1011.044-633.028,1013.571-630.6,1013.571-625.8Z" transform="translate(-741.734 -10.022)" fill="#003152"/>
    <path id="Path_17" data-name="Path 17" d="M1009.7-620.183h-3.683v-10.07c0-2.352-.687-5.156-3.957-5.156-4.1,0-5.2,3.741-5.285,5.216v10.01h-3.683v-26.426h3.683v9.628a8.665,8.665,0,0,1,5.707-2.048c4.453,0,7.22,3.176,7.22,8.289Z" transform="translate(-736.799 -5.086)" fill="#003152"/>
  </g>
</svg>
